# xmcd CD database file generated by Grip 3.2.0
# 
# Track frame offsets:
#       150
#       11865
#       25567
#       40107
#       52167
#       68300
#       83275
#       97502
#       108992
#       126560
#       136897
#       152457
#       163442
#       178797
# 
# Disc length: 2570 seconds
# 
# Revision: 5
# Processed by: cddbd v1.5.1PL0 Copyright (c) Steve Scherf et al.
# Submitted via: Grip 3.2.0
# 
DISCID=a50a080e
DTITLE=J.J. Cale - Travel-Log
DYEAR=1990
DGENRE=Blues
TTITLE0=Shanghaid
TTITLE1=Hold On Baby
TTITLE2=No Time
TTITLE3=Lady Luck
TTITLE4=Disadvantage
TTITLE5=Lean On Me
TTITLE6=End Of The Line
TTITLE7=New Orleans
TTITLE8=Tijuana
TTITLE9=That Kind of Thing
TTITLE10=Who's Talking
TTITLE11=Change Your Mind
TTITLE12=Humdinger
TTITLE13=River Boat Song
EXTD=
EXTT0=
EXTT1=
EXTT2=
EXTT3=
EXTT4=
EXTT5=
EXTT6=
EXTT7=
EXTT8=
EXTT9=
EXTT10=
EXTT11=
EXTT12=
EXTT13=
PLAYORDER=
